<svg xmlns="http://www.w3.org/2000/svg" viewBox="0 0 2810.08 386.371" version="1.1" id="svg1149"><defs id="defs1014"><style id="style1012">.cls-5{fill:#292929}</style></defs><g id="colour_horizontal"><g id="DSC_KIIT_-_Colored_Horizontal_Logo_SVG" data-name="DSC KIIT - Colored Horizontal Logo SVG"><g id="Group_8" data-name="Group 8"><path id="path0" d="M138.073 1.242A39.455 39.455 0 0 0 132 3.506c-4.469 2.235-123.92 69.815-123.735 70a18.194 18.194 0 0 0 3.686-.78c11.617-3.136 16.576-1.4 49.573 17.356 20.12 11.438 26.936 15.026 27.77 14.618 15.075-7.392 77.573-44.024 81.157-47.57 24.118-23.853.432-64.722-32.388-55.886" style="fill:#ea4235"/><path id="path0-2" d="M280.409 114.922c-44.764 26.934-46.218 28.13-49.581 40.774-7.458 28.024 21.79 51.7 47.663 38.59 3.44-1.742 122.605-73.2 122.072-73.2a46.285 46.285 0 0 0-4.475 1.745c-3.7 1.572-4.84 1.742-11.457 1.717-9.619-.042-9.434.038-40.163-17.429C330.793 99.35 319.2 92.857 318.709 92.7c-.491-.157-17.727 9.843-38.3 22.222" style="fill:#fabb04"/><path id="path1" d="M29.531 62.675c-6.617 1.3-8.562 1.85-11.714 3.286a18.939 18.939 0 0 0-4.271 2.439 48.154 48.154 0 0 1-3.715 3.4c-1.691 1.438-2.485 2.213-6.407 7.8-.294.217-1.807 3.367-2.941 10.112A34.468 34.468 0 0 0 3.9 111.4a11.589 11.589 0 0 1 1.017 2.357c-.08 1 9.619 10.46 10.052 9.8.073-.118.665.237 1.308.786 1.273 1.09 12.772 7.663 107.887 61.678 20.083 11.4 21.976 12.087 32.321 11.675 29.255-1.17 42.551-38.725 20.563-58.082-2.775-2.439-62.135-36.707-75.9-43.814-3.515-1.816-16.9-9.284-29.731-16.6-12.831-7.316-24.806-13.808-26.597-14.438-5.243-1.85-11.893-2.756-15.287-2.087" style="fill:#4286f5"/><path id="path2" d="M248.582.908c-20.172 5.02-30 28.116-20.222 47.5 3.509 6.95 6.956 9.609 27.875 21.511a52700.74 52700.74 0 0 1 34.22 19.492c8.385 4.782 17.062 9.619 19.286 10.744s14.673 8.088 27.667 15.476c28.494 16.195 28.226 16.083 37.658 16.135 21.827.128 36.846-19.193 31.4-40.387-2.766-10.756-7.366-15.593-23.623-24.829-59.374-33.734-87.185-49.543-98.143-55.8C267.293.815 258.543-1.573 248.582.908" style="fill:#109d58"/></g></g><g id="g1100" style="fill:#263b5e"><path class="cls-5" d="M513.225 271.663h14.4v.484l-32.186 37.147 34.361 48.521v.484h-13.67l-28.193-40.414-13.31 15.367V358.3h-11.133v-86.637h11.132v44.649h.484z" id="path1024" style="fill:#263b5e"/><path class="cls-5" d="M557.632 297.073q12.341 0 19.481 6.595 7.14 6.595 7.139 18.089V358.3H573.6v-8.228h-.484q-6.9 10.164-18.392 10.164-9.8 0-16.4-5.808a18.545 18.545 0 0 1-6.594-14.52 17.627 17.627 0 0 1 6.958-14.641q6.957-5.445 18.573-5.445 9.92 0 16.335 3.63v-2.542a12.673 12.673 0 0 0-4.6-9.861 15.774 15.774 0 0 0-10.769-4.054 17.06 17.06 0 0 0-14.762 7.865l-9.8-6.171q8.114-11.616 23.967-11.616zm-14.4 43.076a8.886 8.886 0 0 0 3.691 7.26 13.576 13.576 0 0 0 8.651 2.9 17.743 17.743 0 0 0 12.523-5.2 16.3 16.3 0 0 0 5.505-12.221q-5.2-4.112-14.52-4.114a18.858 18.858 0 0 0-11.313 3.267q-4.536 3.268-4.536 8.108z" id="path1026" style="fill:#263b5e"/><path class="cls-5" d="M607.484 271.663V358.3h-11.132v-86.637z" id="path1028" style="fill:#263b5e"/><path class="cls-5" d="M634.949 278.56a7.849 7.849 0 1 1-2.3-5.566 7.585 7.585 0 0 1 2.3 5.566zm-2.3 20.449V358.3h-11.13v-59.29z" id="path1030" style="fill:#263b5e"/><path class="cls-5" d="M646.686 299.009h10.647v8.228h.484a19.784 19.784 0 0 1 7.8-7.26 22.364 22.364 0 0 1 10.95-2.9q10.89 0 16.759 6.231t5.868 17.727V358.3h-11.126v-36.543q-.363-14.52-14.642-14.52a13.916 13.916 0 0 0-11.132 5.384 19.506 19.506 0 0 0-4.477 12.887V358.3h-11.131z" id="path1032" style="fill:#263b5e"/><path class="cls-5" d="M737.436 386.371a33.121 33.121 0 0 1-9.317-1.271 30.135 30.135 0 0 1-7.926-3.569 25.626 25.626 0 0 1-6.11-5.445 22.98 22.98 0 0 1-3.872-7.018l10.527-4.356a16.673 16.673 0 0 0 6.292 8.349 17.642 17.642 0 0 0 10.406 3.146q9.075 0 14.157-5.445 5.082-5.445 5.082-15v-5.687h-.484a21.916 21.916 0 0 1-8.53 7.441 25.517 25.517 0 0 1-11.677 2.723q-11.616 0-19.965-9.075a32.816 32.816 0 0 1-8.229-22.506q0-13.187 8.229-22.385 8.348-9.194 19.965-9.2a25.517 25.517 0 0 1 11.676 2.727 21.916 21.916 0 0 1 8.53 7.441h.484v-8.228h10.647v56.749q0 14.276-8.106 22.385-8.23 8.223-21.779 8.224zm.363-36.3a17.045 17.045 0 0 0 13.431-5.929q5.445-5.927 5.445-15.488 0-9.316-5.445-15.367a17.13 17.13 0 0 0-13.431-6.05 17.362 17.362 0 0 0-13.432 6.05q-5.445 6.052-5.445 15.367 0 9.438 5.445 15.367a17.355 17.355 0 0 0 13.433 6.05z" id="path1034" style="fill:#263b5e"/><path class="cls-5" d="M802.292 297.073q12.341 0 19.48 6.595 7.139 6.595 7.14 18.089V358.3h-10.648v-8.228h-.484q-6.9 10.164-18.392 10.164-9.8 0-16.4-5.808a18.546 18.546 0 0 1-6.595-14.52 17.627 17.627 0 0 1 6.958-14.641q6.957-5.445 18.573-5.445 9.92 0 16.335 3.63v-2.542a12.674 12.674 0 0 0-4.6-9.861 15.776 15.776 0 0 0-10.77-4.054 17.06 17.06 0 0 0-14.762 7.865l-9.8-6.171q8.112-11.616 23.965-11.616zm-14.4 43.076a8.888 8.888 0 0 0 3.69 7.26 13.577 13.577 0 0 0 8.651 2.9 17.741 17.741 0 0 0 12.523-5.2 16.294 16.294 0 0 0 5.506-12.221q-5.2-4.112-14.52-4.114a18.857 18.857 0 0 0-11.313 3.267q-4.536 3.268-4.536 8.108z" id="path1036" style="fill:#263b5e"/><path class="cls-5" d="M880.213 358.3h-11.132v-86.637h11.132z" id="path1038" style="fill:#263b5e"/><path class="cls-5" d="M895.217 299.009h10.647v8.228h.484a19.784 19.784 0 0 1 7.8-7.26 22.364 22.364 0 0 1 10.95-2.9q10.89 0 16.759 6.231t5.868 17.727V358.3H936.6v-36.543q-.363-14.52-14.642-14.52a13.916 13.916 0 0 0-11.132 5.384 19.506 19.506 0 0 0-4.477 12.887V358.3h-11.132z" id="path1040" style="fill:#263b5e"/><path class="cls-5" d="M1005.085 341.843q0 7.745-6.776 13.068-6.776 5.323-17.061 5.324a27.09 27.09 0 0 1-15.73-4.659 25.668 25.668 0 0 1-9.68-12.281l9.922-4.235a18.405 18.405 0 0 0 6.353 8.288 15.433 15.433 0 0 0 9.136 2.965 16.1 16.1 0 0 0 8.893-2.3q3.568-2.3 3.57-5.445 0-5.686-8.712-8.349l-10.164-2.541q-17.306-4.356-17.3-16.7a15.42 15.42 0 0 1 6.595-13.008q6.593-4.9 16.88-4.9a27.444 27.444 0 0 1 14.217 3.751 20.389 20.389 0 0 1 8.894 10.043l-9.922 4.114a12.5 12.5 0 0 0-5.5-5.869 17.283 17.283 0 0 0-8.531-2.118 14.3 14.3 0 0 0-7.8 2.178q-3.45 2.178-3.449 5.324 0 5.082 9.56 7.26l8.954 2.3q17.65 4.359 17.651 17.79z" id="path1042" style="fill:#263b5e"/><path class="cls-5" d="M1037.15 359.267a16.917 16.917 0 0 1-12.039-4.477q-4.783-4.475-4.9-12.463v-33.154H1009.8v-10.164h10.405v-18.15h11.133v18.15h14.52v10.164h-14.52V338.7q0 5.93 2.3 8.046a7.47 7.47 0 0 0 5.2 2.118 11.149 11.149 0 0 0 2.6-.3 13.348 13.348 0 0 0 2.359-.786l3.509 9.922a29.928 29.928 0 0 1-10.156 1.567z" id="path1044" style="fill:#263b5e"/><path class="cls-5" d="M1071.026 278.56a7.849 7.849 0 1 1-2.3-5.566 7.585 7.585 0 0 1 2.3 5.566zm-2.3 20.449V358.3H1057.6v-59.29z" id="path1046" style="fill:#263b5e"/><path class="cls-5" d="M1105.632 359.267a16.917 16.917 0 0 1-12.039-4.477q-4.783-4.475-4.9-12.463v-33.154h-10.405v-10.164h10.405v-18.15h11.133v18.15h14.52v10.164h-14.52V338.7q0 5.93 2.3 8.046a7.47 7.47 0 0 0 5.2 2.118 11.149 11.149 0 0 0 2.6-.3 13.348 13.348 0 0 0 2.359-.786l3.509 9.922a29.928 29.928 0 0 1-10.162 1.567z" id="path1048" style="fill:#263b5e"/><path class="cls-5" d="M1176.536 358.3h-10.647v-8.228h-.484a19.788 19.788 0 0 1-7.8 7.26 22.374 22.374 0 0 1-10.95 2.9q-10.89 0-16.759-6.231t-5.868-17.727v-37.265h11.132v36.542q.363 14.52 14.642 14.52a13.915 13.915 0 0 0 11.132-5.384 19.509 19.509 0 0 0 4.466-12.887v-32.791h11.132z" id="path1050" style="fill:#263b5e"/><path class="cls-5" d="M1213.682 359.267a16.917 16.917 0 0 1-12.039-4.477q-4.783-4.475-4.9-12.463v-33.154h-10.405v-10.164h10.405v-18.15h11.133v18.15h14.52v10.164h-14.52V338.7q0 5.93 2.3 8.046a7.47 7.47 0 0 0 5.2 2.118 11.149 11.149 0 0 0 2.6-.3 13.348 13.348 0 0 0 2.359-.786l3.509 9.922a29.928 29.928 0 0 1-10.162 1.567z" id="path1052" style="fill:#263b5e"/><path class="cls-5" d="M1258.572 360.235q-13.069 0-21.538-8.954t-8.471-22.627q0-13.55 8.229-22.566 8.229-9.016 21.054-9.015 13.187 0 20.993 8.531 7.806 8.531 7.8 23.9l-.121 1.21h-46.585q.242 8.712 5.809 14.036a18.573 18.573 0 0 0 13.31 5.324q10.646 0 16.7-10.648l9.922 4.84A29.562 29.562 0 0 1 1274.6 356a30.627 30.627 0 0 1-16.028 4.235zm-17.787-38.72h34a14.769 14.769 0 0 0-5.021-10.224q-4.538-4.052-12.161-4.054a16.137 16.137 0 0 0-10.829 3.872 18.493 18.493 0 0 0-5.989 10.406z" id="path1054" style="fill:#263b5e"/><path class="cls-5" d="M1319.069 328.654q0-13.672 8.591-22.627 8.713-8.953 21.9-8.954 13.187-.001 21.78 8.954 8.711 8.956 8.712 22.627 0 13.794-8.712 22.627-8.593 8.956-21.78 8.954-13.187-.002-21.9-8.954-8.592-8.953-8.591-22.627zm11.132 0q0 9.56 5.566 15.488a19.01 19.01 0 0 0 27.588 0q5.565-5.927 5.566-15.488 0-9.438-5.566-15.367a18.75 18.75 0 0 0-27.588 0q-5.567 5.93-5.567 15.367z" id="path1056" style="fill:#263b5e"/><path class="cls-5" d="M1415.265 270.7a21.078 21.078 0 0 1 9.922 2.057l-3.025 9.8a14.407 14.407 0 0 0-6.533-1.452 8.69 8.69 0 0 0-6.716 2.844 10.764 10.764 0 0 0-2.6 7.563v7.5h15.487v10.164h-15.488V358.3h-11.132v-49.127h-11.132v-10.164h11.132v-8.591q0-8.832 5.626-14.278t14.459-5.44z" id="path1058" style="fill:#263b5e"/><path class="cls-5" d="M1471.164 358.3h-11.132v-86.637h11.132z" id="path1060" style="fill:#263b5e"/><path class="cls-5" d="M1486.168 299.009h10.647v8.228h.484a19.784 19.784 0 0 1 7.8-7.26 22.364 22.364 0 0 1 10.95-2.9q10.89 0 16.759 6.231t5.868 17.727V358.3h-11.126v-36.543q-.363-14.52-14.642-14.52a13.916 13.916 0 0 0-11.132 5.384 19.506 19.506 0 0 0-4.477 12.887V358.3h-11.132z" id="path1062" style="fill:#263b5e"/><path class="cls-5" d="M1576.07 360.235q-11.616 0-19.965-9.2a34.563 34.563 0 0 1 0-44.77q8.348-9.194 19.965-9.2a25.572 25.572 0 0 1 11.918 2.783 20.879 20.879 0 0 1 8.289 7.381h.484l-.484-8.228v-27.338h11.132V358.3h-10.647v-8.228h-.484a20.85 20.85 0 0 1-8.289 7.381 25.572 25.572 0 0 1-11.919 2.782zm1.815-10.164a17.045 17.045 0 0 0 13.431-5.929q5.445-5.927 5.445-15.488 0-9.316-5.445-15.367a17.13 17.13 0 0 0-13.431-6.05 17.362 17.362 0 0 0-13.432 6.05q-5.445 6.052-5.445 15.367 0 9.438 5.445 15.367a17.355 17.355 0 0 0 13.433 6.05z" id="path1064" style="fill:#263b5e"/><path class="cls-5" d="M1672.505 358.3h-10.647v-8.228h-.484a19.788 19.788 0 0 1-7.8 7.26 22.374 22.374 0 0 1-10.95 2.9q-10.89 0-16.759-6.231t-5.868-17.727v-37.265h11.132v36.542q.363 14.52 14.642 14.52a13.915 13.915 0 0 0 11.132-5.384 19.509 19.509 0 0 0 4.477-12.887v-32.791h11.132z" id="path1066" style="fill:#263b5e"/><path class="cls-5" d="M1730.344 341.843q0 7.745-6.776 13.068-6.776 5.323-17.061 5.324a27.09 27.09 0 0 1-15.73-4.659 25.668 25.668 0 0 1-9.68-12.281l9.922-4.235a18.405 18.405 0 0 0 6.353 8.288 15.433 15.433 0 0 0 9.136 2.965 16.1 16.1 0 0 0 8.893-2.3q3.568-2.3 3.57-5.445 0-5.686-8.712-8.349l-10.164-2.541q-17.306-4.356-17.3-16.7a15.42 15.42 0 0 1 6.595-13.008q6.593-4.9 16.88-4.9a27.444 27.444 0 0 1 14.217 3.751 20.389 20.389 0 0 1 8.894 10.043l-9.922 4.114a12.5 12.5 0 0 0-5.5-5.869 17.283 17.283 0 0 0-8.531-2.118 14.3 14.3 0 0 0-7.8 2.178q-3.45 2.178-3.449 5.324 0 5.082 9.56 7.26l8.954 2.3q17.649 4.359 17.651 17.79z" id="path1068" style="fill:#263b5e"/><path class="cls-5" d="M1762.408 359.267a16.917 16.917 0 0 1-12.039-4.477q-4.783-4.475-4.9-12.463v-33.154h-10.405v-10.164h10.405v-18.15h11.131v18.15h14.52v10.164h-14.52V338.7q0 5.93 2.3 8.046a7.47 7.47 0 0 0 5.2 2.118 11.149 11.149 0 0 0 2.6-.3 13.348 13.348 0 0 0 2.359-.786l3.509 9.922a29.928 29.928 0 0 1-10.16 1.567z" id="path1070" style="fill:#263b5e"/><path class="cls-5" d="M1792.415 358.3h-11.132v-59.29h10.647v9.68h.484a16.073 16.073 0 0 1 6.957-8.047 19.318 19.318 0 0 1 10.346-3.327 20.872 20.872 0 0 1 8.229 1.452l-3.389 10.769a18.489 18.489 0 0 0-6.534-.847 14.4 14.4 0 0 0-10.95 5.082 16.994 16.994 0 0 0-4.658 11.858z" id="path1072" style="fill:#263b5e"/><path class="cls-5" d="M1839.12 278.56a7.849 7.849 0 1 1-2.3-5.566 7.585 7.585 0 0 1 2.3 5.566zm-2.3 20.449V358.3h-11.13v-59.29z" id="path1074" style="fill:#263b5e"/><path class="cls-5" d="M1872.758 297.073q12.341 0 19.48 6.595 7.139 6.595 7.14 18.089V358.3h-10.648v-8.228h-.484q-6.9 10.164-18.392 10.164-9.8 0-16.4-5.808a18.546 18.546 0 0 1-6.595-14.52 17.627 17.627 0 0 1 6.958-14.641q6.957-5.445 18.573-5.445 9.92 0 16.335 3.63v-2.542a12.674 12.674 0 0 0-4.6-9.861 15.776 15.776 0 0 0-10.77-4.054 17.06 17.06 0 0 0-14.762 7.865l-9.8-6.171q8.107-11.616 23.965-11.616zm-14.4 43.076a8.888 8.888 0 0 0 3.69 7.26 13.577 13.577 0 0 0 8.651 2.9 17.741 17.741 0 0 0 12.523-5.2 16.294 16.294 0 0 0 5.506-12.221q-5.2-4.112-14.52-4.114a18.857 18.857 0 0 0-11.313 3.267q-4.536 3.268-4.536 8.108z" id="path1076" style="fill:#263b5e"/><path class="cls-5" d="M1922.61 271.663V358.3h-11.132v-86.637z" id="path1078" style="fill:#263b5e"/><path class="cls-5" d="M1988.432 282.311V358.3H1977.3v-75.989h-24.2v-10.648h59.531v10.648z" id="path1080" style="fill:#263b5e"/><path class="cls-5" d="M2038.769 360.235q-13.069 0-21.538-8.954t-8.471-22.627q0-13.55 8.229-22.566 8.229-9.016 21.054-9.015 13.187 0 20.993 8.531 7.806 8.531 7.8 23.9l-.121 1.21h-46.585q.242 8.712 5.809 14.036a18.573 18.573 0 0 0 13.31 5.324q10.646 0 16.7-10.648l9.922 4.84A29.562 29.562 0 0 1 2054.8 356a30.627 30.627 0 0 1-16.031 4.235zm-17.787-38.72h34a14.769 14.769 0 0 0-5.021-10.224q-4.538-4.052-12.161-4.054a16.137 16.137 0 0 0-10.829 3.872 18.493 18.493 0 0 0-5.989 10.406z" id="path1082" style="fill:#263b5e"/><path class="cls-5" d="M2104.228 360.235q-13.189 0-21.9-8.954-8.593-9.194-8.591-22.627 0-13.672 8.591-22.627 8.713-8.953 21.9-8.954a27.143 27.143 0 0 1 26.015 17.061l-10.163 4.235q-4.72-11.131-16.577-11.132a17.206 17.206 0 0 0-13.189 6.171 24.066 24.066 0 0 0 0 30.492 17.206 17.206 0 0 0 13.189 6.171q12.22 0 17.182-11.132l9.922 4.235a26.56 26.56 0 0 1-10.225 12.523 28.907 28.907 0 0 1-16.154 4.538z" id="path1084" style="fill:#263b5e"/><path class="cls-5" d="M2139.8 271.663h11.132v27.346l-.484 8.228h.484a19.784 19.784 0 0 1 7.8-7.26 22.364 22.364 0 0 1 10.95-2.9q10.89 0 16.759 6.231t5.868 17.727V358.3h-11.132v-35.09q0-15.972-14.157-15.972a14.31 14.31 0 0 0-11.435 5.626 19.961 19.961 0 0 0-4.658 13.128V358.3H2139.8z" id="path1086" style="fill:#263b5e"/><path class="cls-5" d="M2204.9 299.009h10.647v8.228h.484a19.784 19.784 0 0 1 7.8-7.26 22.364 22.364 0 0 1 10.95-2.9q10.89 0 16.759 6.231t5.868 17.727V358.3h-11.132v-36.543q-.363-14.52-14.642-14.52a13.916 13.916 0 0 0-11.132 5.384 19.506 19.506 0 0 0-4.477 12.887V358.3H2204.9z" id="path1088" style="fill:#263b5e"/><path class="cls-5" d="M2266.606 328.654q0-13.672 8.591-22.627 8.713-8.953 21.9-8.954 13.187-.001 21.78 8.954 8.711 8.956 8.712 22.627 0 13.794-8.712 22.627-8.593 8.956-21.78 8.954-13.187-.002-21.9-8.954-8.597-8.953-8.591-22.627zm11.132 0q0 9.56 5.566 15.488a19.01 19.01 0 0 0 27.588 0q5.565-5.927 5.566-15.488 0-9.438-5.566-15.367a18.75 18.75 0 0 0-27.588 0q-5.567 5.93-5.567 15.367z" id="path1090" style="fill:#263b5e"/><path class="cls-5" d="M2347.8 271.663V358.3h-11.132v-86.637z" id="path1092" style="fill:#263b5e"/><path class="cls-5" d="M2356.873 328.654q0-13.672 8.591-22.627 8.713-8.953 21.9-8.954 13.187-.001 21.78 8.954 8.711 8.956 8.712 22.627 0 13.794-8.712 22.627-8.593 8.956-21.78 8.954-13.187-.002-21.9-8.954-8.593-8.953-8.591-22.627zm11.132 0q0 9.56 5.566 15.488a19.01 19.01 0 0 0 27.588 0q5.565-5.927 5.566-15.488 0-9.438-5.566-15.367a18.75 18.75 0 0 0-27.588 0q-5.566 5.93-5.566 15.367z" id="path1094" style="fill:#263b5e"/><path class="cls-5" d="M2453.8 386.371a33.121 33.121 0 0 1-9.317-1.271 30.135 30.135 0 0 1-7.926-3.569 25.626 25.626 0 0 1-6.11-5.445 22.98 22.98 0 0 1-3.872-7.018l10.527-4.356a16.673 16.673 0 0 0 6.292 8.349 17.642 17.642 0 0 0 10.406 3.146q9.075 0 14.157-5.445 5.082-5.445 5.082-15v-5.687h-.484a21.916 21.916 0 0 1-8.53 7.441 25.517 25.517 0 0 1-11.677 2.723q-11.616 0-19.965-9.075a32.816 32.816 0 0 1-8.229-22.506q0-13.187 8.229-22.385 8.348-9.194 19.965-9.2a25.517 25.517 0 0 1 11.677 2.723 21.916 21.916 0 0 1 8.53 7.441h.484v-8.228h10.647v56.749q0 14.276-8.106 22.385-8.236 8.227-21.78 8.228zm.363-36.3a17.045 17.045 0 0 0 13.431-5.929q5.445-5.927 5.445-15.488 0-9.316-5.445-15.367a17.13 17.13 0 0 0-13.431-6.05 17.362 17.362 0 0 0-13.432 6.05q-5.445 6.052-5.445 15.367 0 9.438 5.445 15.367a17.355 17.355 0 0 0 13.427 6.05z" id="path1096" style="fill:#263b5e"/><path class="cls-5" d="m2549.746 299.009-37.146 85.426h-11.5l13.794-29.887-24.441-55.539h12.1l17.666 42.592h.242l17.182-42.592z" id="path1098" style="fill:#263b5e"/></g><g id="g1144" style="fill:#263b5e"><path class="cls-5" d="M470.406 175.3V19.927h47.523q35.586 0 57.18 21.483t21.591 56.2q0 34.94-21.591 56.312t-57.18 21.378zM490.37 39.023V156.2h27.559q27.123 0 42.749-15.515 15.626-15.515 15.622-43.072 0-27.342-15.624-42.966-15.624-15.624-42.747-15.624z" id="path1102" style="fill:#263b5e"/><path class="cls-5" d="M662.884 178.771q-23.436 0-38.626-16.058-15.19-16.058-15.189-40.579 0-24.3 14.756-40.471 14.756-16.171 37.757-16.163 23.65 0 37.649 15.3 13.999 15.3 14 42.857l-.218 2.17h-83.547q.432 15.624 10.416 25.172a33.31 33.31 0 0 0 23.87 9.548q19.093 0 29.946-19.1l17.794 8.68a53.016 53.016 0 0 1-19.855 21.049 54.927 54.927 0 0 1-28.753 7.595zm-31.9-69.44h60.977a26.48 26.48 0 0 0-9-18.337q-8.139-7.268-21.809-7.27a28.941 28.941 0 0 0-19.422 6.944q-8.141 6.948-10.745 18.663z" id="path1104" style="fill:#263b5e"/><path class="cls-5" d="M782.451 175.3h-19.964L719.522 68.969h21.7l31.248 82.46h.434l31.682-82.46h21.267z" id="path1106" style="fill:#263b5e"/><path class="cls-5" d="M884.872 178.771q-23.436 0-38.626-16.058-15.19-16.058-15.189-40.579 0-24.3 14.756-40.471Q860.569 65.492 883.57 65.5q23.65 0 37.649 15.3 13.999 15.3 14 42.857l-.218 2.17h-83.547q.432 15.624 10.416 25.172a33.31 33.31 0 0 0 23.87 9.548q19.093 0 29.946-19.1l17.794 8.68a53.016 53.016 0 0 1-19.855 21.049 54.927 54.927 0 0 1-28.753 7.595zm-31.9-69.44h60.978a26.48 26.48 0 0 0-9-18.337q-8.139-7.268-21.809-7.27a28.941 28.941 0 0 0-19.422 6.944q-8.141 6.948-10.745 18.663z" id="path1108" style="fill:#263b5e"/><path class="cls-5" d="M974.927 19.927V175.3h-19.964V19.927z" id="path1110" style="fill:#263b5e"/><path class="cls-5" d="M993.59 122.134q0-24.519 15.407-40.579 15.624-16.055 39.277-16.055t39.061 16.058q15.624 16.061 15.624 40.579 0 24.738-15.624 40.579-15.41 16.061-39.061 16.058-23.651-.003-39.274-16.061-15.414-16.056-15.41-40.579zm19.964 0q0 17.145 9.982 27.776a34.092 34.092 0 0 0 49.476 0q9.979-10.63 9.982-27.776 0-16.926-9.982-27.559a33.626 33.626 0 0 0-49.476 0q-9.984 10.635-9.982 27.559z" id="path1112" style="fill:#263b5e"/><path class="cls-5" d="M1176.956 178.771a45.861 45.861 0 0 1-21.375-4.991 37.366 37.366 0 0 1-14.864-13.237h-.868l.868 14.756v46.872h-19.964V68.969h19.1v14.756h.868a37.416 37.416 0 0 1 14.864-13.237 45.861 45.861 0 0 1 21.375-4.991q21.045 0 35.588 16.492 14.972 16.712 14.973 40.145 0 23.655-14.973 40.145-14.548 16.493-35.592 16.492zm-3.255-18.228a31.126 31.126 0 0 0 24.087-10.85q9.765-10.63 9.765-27.559 0-16.707-9.765-27.559a32.4 32.4 0 0 0-48.392 0q-9.551 10.854-9.548 27.559 0 16.926 9.548 27.776a31.644 31.644 0 0 0 24.304 10.633z" id="path1114" style="fill:#263b5e"/><path class="cls-5" d="M1295 178.771q-23.436 0-38.626-16.058-15.19-16.058-15.189-40.579 0-24.3 14.756-40.471 14.756-16.171 37.759-16.163 23.65 0 37.649 15.3 13.999 15.3 14 42.857l-.218 2.17h-83.545q.432 15.624 10.416 25.172a33.31 33.31 0 0 0 23.87 9.548q19.093 0 29.946-19.1l17.794 8.68a53.016 53.016 0 0 1-19.855 21.049 54.927 54.927 0 0 1-28.757 7.595zm-31.9-69.44h60.977a26.48 26.48 0 0 0-9-18.337q-8.139-7.268-21.809-7.27a28.941 28.941 0 0 0-19.422 6.944q-8.138 6.948-10.746 18.663z" id="path1116" style="fill:#263b5e"/><path class="cls-5" d="M1385.057 175.3h-19.964V68.969h19.1v17.36h.868q3.037-8.462 12.478-14.43 9.441-5.968 18.554-5.968a37.421 37.421 0 0 1 14.756 2.6l-6.076 19.313q-3.693-1.515-11.718-1.519-11.287 0-19.639 9.114a30.476 30.476 0 0 0-8.354 21.266z" id="path1118" style="fill:#263b5e"/><path class="cls-5" d="M1587.513 133.852q0 20.4-14.973 32.767-15.192 12.156-36.891 12.152a54.526 54.526 0 0 1-34.068-11.284q-14.76-11.281-20.4-30.814l19.1-7.812a49.331 49.331 0 0 0 5.425 12.586 40.72 40.72 0 0 0 8.138 9.657 36.794 36.794 0 0 0 10.308 6.293 31.558 31.558 0 0 0 11.936 2.278q13.67 0 22.351-7.052t8.68-18.771a22.44 22.44 0 0 0-7.161-16.709q-6.728-6.724-25.172-13.02-18.665-6.724-23.219-9.114-24.738-12.582-24.738-37.107 0-17.139 13.672-29.295 13.884-12.15 34.068-12.152 17.791 0 30.814 9.114 13.02 8.9 17.359 22.351l-18.662 7.812a27.616 27.616 0 0 0-10.31-14.432q-7.707-5.747-18.771-5.75-11.719 0-19.747 6.51a18.96 18.96 0 0 0-8.029 15.841 18.352 18.352 0 0 0 6.293 13.888q6.942 5.859 30.163 13.888 23.65 8.031 33.743 19.639 10.093 11.608 10.091 28.536z" id="path1120" style="fill:#263b5e"/><path class="cls-5" d="M1646.319 177.035q-13.02 0-21.592-8.029t-8.788-22.351V87.2h-18.662V68.969h18.662v-32.55h19.961v32.55h26.04V87.2h-26.04v52.948q0 10.635 4.123 14.43a13.4 13.4 0 0 0 9.331 3.8 20.015 20.015 0 0 0 4.665-.542 23.953 23.953 0 0 0 4.231-1.411l6.293 17.794a53.664 53.664 0 0 1-18.224 2.816z" id="path1122" style="fill:#263b5e"/><path class="cls-5" d="M1775.866 175.3h-19.1v-14.757h-.868q-4.557 7.812-14 13.02a40.127 40.127 0 0 1-19.639 5.208q-19.531 0-30.055-11.176-10.524-11.176-10.515-31.795V68.969h19.964V134.5q.65 26.04 26.257 26.04 11.931 0 19.964-9.657a34.986 34.986 0 0 0 8.029-23.11V68.969h19.964z" id="path1124" style="fill:#263b5e"/><path class="cls-5" d="M1845.09 178.771q-20.832 0-35.8-16.492-14.76-16.707-14.756-40.145 0-23.438 14.756-40.145 14.974-16.488 35.8-16.492a45.872 45.872 0 0 1 21.375 4.991 37.436 37.436 0 0 1 14.864 13.237h.868l-.868-14.756V19.927h19.964V175.3h-19.1v-14.757h-.868a37.385 37.385 0 0 1-14.864 13.237 45.872 45.872 0 0 1-21.371 4.991zm3.255-18.228q14.755 0 24.087-10.633 9.766-10.63 9.766-27.776 0-16.707-9.766-27.559a30.722 30.722 0 0 0-24.087-10.85 31.138 31.138 0 0 0-24.087 10.85q-9.765 10.854-9.765 27.559 0 16.926 9.765 27.559a31.126 31.126 0 0 0 24.087 10.85z" id="path1126" style="fill:#263b5e"/><path class="cls-5" d="M1973.771 178.771q-23.436 0-38.626-16.058-15.19-16.058-15.189-40.579 0-24.3 14.756-40.471 14.756-16.171 37.757-16.163 23.65 0 37.649 15.3 13.999 15.3 14 42.857l-.218 2.17h-83.545q.432 15.624 10.416 25.172a33.31 33.31 0 0 0 23.87 9.548q19.093 0 29.946-19.1l17.794 8.68a53.016 53.016 0 0 1-19.855 21.049 54.927 54.927 0 0 1-28.755 7.595zm-31.9-69.44h60.977a26.48 26.48 0 0 0-9-18.337q-8.139-7.268-21.809-7.27a28.941 28.941 0 0 0-19.422 6.944q-8.141 6.948-10.745 18.663z" id="path1128" style="fill:#263b5e"/><path class="cls-5" d="M2043.861 68.969h19.1v14.756h.868q4.557-7.812 14-13.02a40.111 40.111 0 0 1 19.631-5.205q19.531 0 30.055 11.175 10.524 11.175 10.524 31.791V175.3h-19.964v-65.535q-.652-26.04-26.257-26.04-11.937 0-19.965 9.657a34.982 34.982 0 0 0-8.028 23.11V175.3h-19.964z" id="path1130" style="fill:#263b5e"/><path class="cls-5" d="M2199.666 177.035q-13.02 0-21.592-8.029t-8.788-22.351V87.2h-18.662V68.969h18.662v-32.55h19.964v32.55h26.04V87.2h-26.04v52.948q0 10.635 4.123 14.43a13.4 13.4 0 0 0 9.331 3.8 20.015 20.015 0 0 0 4.665-.542 23.953 23.953 0 0 0 4.231-1.411l6.293 17.794a53.664 53.664 0 0 1-18.227 2.816z" id="path1132" style="fill:#263b5e"/><path class="cls-5" d="M2357.422 178.771q-34.5 0-57.722-23.219-23-23.217-23-57.939t23-57.722q23-23.436 57.722-23.436 35.155 0 57.071 25.389l-14.322 13.888q-16.712-20.181-42.749-20.181-25.827 0-43.183 17.36-17.145 17.145-17.144 44.7 0 27.555 17.144 44.7 17.358 17.364 43.183 17.36 27.123 0 47.089-22.785l14.539 14.1a75.356 75.356 0 0 1-27.125 20.507 82.706 82.706 0 0 1-34.503 7.278z" id="path1134" style="fill:#263b5e"/><path class="cls-5" d="M2458.326 19.927V175.3h-19.964V19.927z" id="path1136" style="fill:#263b5e"/><path class="cls-5" d="M2577.458 175.3h-19.1v-14.757h-.868q-4.557 7.812-14 13.02a40.127 40.127 0 0 1-19.639 5.208q-19.531 0-30.055-11.176-10.524-11.176-10.516-31.795V68.969h19.964V134.5q.65 26.04 26.257 26.04 11.931 0 19.964-9.657a34.986 34.986 0 0 0 8.029-23.11V68.969h19.964z" id="path1138" style="fill:#263b5e"/><path class="cls-5" d="M2659.483 178.771a45.861 45.861 0 0 1-21.375-4.991 37.366 37.366 0 0 1-14.864-13.237h-.868V175.3h-19.1V19.927h19.964v49.042l-.868 14.756h.868a37.416 37.416 0 0 1 14.864-13.237 45.861 45.861 0 0 1 21.375-4.991q21.045 0 35.588 16.492 14.972 16.712 14.973 40.145 0 23.655-14.973 40.145-14.538 16.493-35.584 16.492zm-3.256-18.228a31.124 31.124 0 0 0 24.087-10.85q9.766-10.63 9.766-27.559 0-16.707-9.766-27.559a32.4 32.4 0 0 0-48.391 0q-9.551 10.854-9.548 27.559 0 16.926 9.548 27.776a31.642 31.642 0 0 0 24.304 10.633z" id="path1140" style="fill:#263b5e"/><path class="cls-5" d="M2810.08 145.787q0 13.89-12.152 23.436t-30.6 9.548q-16.062 0-28.21-8.354a46.038 46.038 0 0 1-17.36-22.026l17.794-7.595a33.008 33.008 0 0 0 11.393 14.864 27.673 27.673 0 0 0 16.384 5.317q9.546 0 15.949-4.123 6.403-4.123 6.4-9.765 0-10.2-15.624-14.973l-18.228-4.557q-31.034-7.812-31.031-29.946 0-14.536 11.826-23.328T2766.9 65.5a49.227 49.227 0 0 1 25.5 6.727 36.573 36.573 0 0 1 15.949 18.011l-17.794 7.378a22.426 22.426 0 0 0-9.874-10.524 30.986 30.986 0 0 0-15.3-3.8 25.659 25.659 0 0 0-14 3.906q-6.185 3.906-6.185 9.548 0 9.114 17.144 13.02l16.058 4.123q31.68 7.811 31.682 31.898z" id="path1142" style="fill:#263b5e"/></g></g></svg>